<svg width="20" height="20" viewBox="0 0 20 20" fill="none" xmlns="http://www.w3.org/2000/svg">
<g clip-path="url(#clip0_69_795)">
<path d="M18.3335 14.0999V16.5999C18.3344 16.832 18.2869 17.0617 18.1939 17.2744C18.1009 17.487 17.9645 17.6779 17.7935 17.8348C17.6225 17.9917 17.4206 18.1112 17.2008 18.1855C16.9809 18.2599 16.7479 18.2875 16.5168 18.2666C13.9525 17.988 11.4893 17.1117 9.32513 15.7083C7.07917 14.278 5.21907 12.3178 3.90847 9.99994C2.50011 7.82595 1.62367 5.35077 1.35013 2.77494C1.3446 2.55399 1.38306 2.33414 1.4633 2.12819C1.54353 1.92224 1.66393 1.73431 1.81748 1.57533C1.97103 1.41635 2.15466 1.2895 2.3577 1.20217C2.56074 1.11483 2.77912 1.06875 3.00013 1.06661H5.50013C5.90455 1.06263 6.29663 1.20584 6.60327 1.46955C6.90991 1.73326 7.1102 2.09948 7.1668 2.49994C7.27263 3.29994 7.46763 4.08578 7.75013 4.84161C7.86225 5.13988 7.88652 5.46404 7.82005 5.77568C7.75359 6.08731 7.59919 6.37337 7.37513 6.59994L6.5918 7.38328C7.7846 9.4945 9.53057 11.2405 11.6418 12.4333L12.5918 11.4833C12.8184 11.2592 13.1044 11.1048 13.4161 11.0384C13.7277 10.9719 14.0519 10.9962 14.3501 11.1083C15.106 11.3908 15.8918 11.5858 16.6918 11.6916C16.9879 11.6644 17.2859 11.7169 17.5549 11.8436C17.8239 11.9704 18.0541 12.1668 18.2216 12.4125C18.389 12.6582 18.4878 12.9443 18.5074 13.241C18.5271 13.5377 18.467 13.8343 18.3335 14.0999Z" stroke="black" stroke-width="1.58333" stroke-linecap="round" stroke-linejoin="round"/>
</g>
<defs>
<clipPath id="clip0_69_795">
<rect width="20" height="20" fill="white"/>
</clipPath>
</defs>
</svg>
